Coordinates
version=1
nRows=8
nColumns=34
inDegrees=yes

Units are S.I. units (second, meters, Newtons, ...)
If the header above contains a line with 'inDegrees', this indicates whether rotational values are in degrees (yes) or radians (no).

endheader
time	pelvis_tilt	pelvis_list	pelvis_rotation	pelvis_tx	pelvis_ty	pelvis_tz	hip_flexion_r	hip_adduction_r	hip_rotation_r	knee_angle_r	ankle_angle_r	subtalar_angle_r	mtp_angle_r	hip_flexion_l	hip_adduction_l	hip_rotation_l	knee_angle_l	ankle_angle_l	subtalar_angle_l	mtp_angle_l	lumbar_extension	lumbar_bending	lumbar_rotation	arm_flex_r	arm_add_r	arm_rot_r	elbow_flex_r	pro_sup_r	arm_flex_l	arm_add_l	arm_rot_l	elbow_flex_l	pro_sup_l
      5.41666670	      3.94300005	     -0.89261117	     24.48753860	     -0.52968502	      0.68387965	     -0.21880924	    -13.75689707	     -4.17311155	     39.99999995	     11.91336226	    -50.00000000	    -35.00000000	      0.00000000	     20.48160779	     -4.50507667	     20.03504358	     47.02512730	     50.00000000	     25.13700831	      0.00000000	    -21.67582786	     12.12111813	     -7.84221878	     -4.91685463	    -19.30829698	     -8.49296673	     19.97925544	     78.16970245	     13.86008637	    -17.27040992	     48.19993951	     17.63152348	     59.70008453
      5.43333330	      2.66647335	     -1.21282245	     24.03337667	     -0.53060382	      0.68556235	     -0.21889523	    -12.03939470	     -4.30465407	     39.99999995	     12.32126883	    -50.00000000	    -35.00000000	      0.00000000	     21.62685945	     -4.45812980	     19.53391284	     46.42289930	     50.00000000	     25.39397641	      0.00000000	    -18.94482666	     11.27234395	     -7.70758879	     -5.88730412	    -19.17170522	     -8.35483774	     20.10545063	     78.21309240	     13.23150011	    -17.36161782	     48.30330482	     17.81369056	     60.31557831
      5.45000000	      0.88360664	     -1.61152663	     23.52888808	     -0.52906205	      0.68715124	     -0.21805050	     -9.73306471	     -4.55016352	     39.99999995	     12.75930254	    -50.00000000	    -35.00000000	      0.00000000	     22.89689977	     -4.44586041	     18.94787902	     45.26250547	     50.00000000	     25.56682541	      0.00000000	    -15.45450099	     10.15425363	     -7.54033734	     -7.22166695	    -18.97533868	     -8.20841699	     20.36470952	     78.26807157	     12.53635463	    -17.54193527	     48.46051756	     18.00251064	     60.91290558
      5.46666670	     -0.91922114	     -2.01237283	     22.98005670	     -0.52765025	      0.69004276	     -0.21713865	     -7.38122471	     -4.84715792	     39.99999995	     13.08202824	    -50.00000000	    -35.00000000	      0.00000000	     24.14302122	     -4.37836016	     18.47121465	     43.86883056	     50.00000000	     25.87229164	      0.00000000	    -11.97810353	      9.06607008	     -7.35355751	     -8.60114864	    -18.77373391	     -8.06333713	     20.69804789	     78.33205388	     11.84187152	    -17.73117441	     48.69162226	     18.24305481	     61.52594135
      5.48333330	     -2.88612958	     -2.37102927	     22.33084314	     -0.52418411	      0.69071999	     -0.21581805	     -5.04931948	     -5.06250781	     39.99999995	     13.56887900	    -50.00000000	    -35.00000000	      0.00000000	     25.23924175	     -4.49450199	     17.68904935	     42.43426150	     50.00000000	     26.14809814	      0.00000000	     -8.14965991	      7.84038934	     -7.01858880	    -10.27175231	    -18.54437189	     -7.92552494	     21.05350036	     78.40476463	     10.93095770	    -18.07432713	     49.03619749	     18.50316934	     62.15967881
      5.50000000	     -4.83264227	     -2.58286004	     21.60626610	     -0.52212479	      0.68949989	     -0.21482375	     -2.85851801	     -5.40292694	     39.99999995	     13.95244556	    -50.00000000	    -35.00000000	      0.00000000	     26.12997304	     -4.57993905	     16.72818842	     40.82936730	     50.00000000	     26.44832367	      0.00000000	     -4.38549986	      6.49425502	     -6.55569255	    -11.85780718	    -18.36796137	     -7.80492948	     21.52556951	     78.47748684	     10.19399981	    -18.57927145	     49.46754066	     18.83821577	     62.77935958
      5.51666670	     -7.06868699	     -2.73049519	     20.77736020	     -0.51887183	      0.69279575	     -0.21243899	     -0.25239139	     -5.81124018	     39.99999995	     14.46447630	    -50.00000000	    -35.00000000	      0.00000000	     27.20606031	     -4.53633628	     15.83085620	     39.04315710	     50.00000000	     26.60501574	      0.00000000	     -0.32952743	      4.97627987	     -5.80704264	    -13.75602890	    -18.11262689	     -7.69243584	     22.17898795	     78.55501413	      9.43698307	    -19.23206072	     50.04619530	     19.36800675	     63.44411674
      5.53333330	     -9.06299640	     -2.96837621	     20.06537731	     -0.51717930	      0.69404698	     -0.21126408	      2.07039884	     -6.00023025	     39.99999995	     14.83758411	    -50.00000000	    -35.00000000	      0.00000000	     27.91478279	     -4.59073542	     15.48058848	     37.08529737	     49.44614557	     26.30833449	      0.00000000	      3.40353760	      3.81421710	     -4.90476470	    -15.75132468	    -17.94627154	     -7.59189833	     23.06519809	     78.63572578	      8.81174177	    -19.92205344	     50.79299516	     20.05090320	     64.14375113
